{
  "accessors": [
    {
      "bufferView": 2,
      "componentType": 5126,
      "count": 29794,
      "max": [
        1.174051284790039,
        5.460117340087891,
        4.878662109375
      ],
      "min": [
        -1.1742029190063477,
        -0.03855717182159424,
        -5.140979766845703
      ],
      "type": "VEC3"
    },
    {
      "bufferView": 2,
      "byteOffset": 357528,
      "componentType": 5126,
      "count": 29794,
      "max": [
        0.9999872446060181,
        1.0,
        0.9999485015869141
      ],
      "min": [
        -0.9999872446060181,
        -0.9999997615814209,
        -0.9998652935028076
      ],
      "type": "VEC3"
    },
    {
      "bufferView": 3,
      "componentType": 5126,
      "count": 29794,
      "max": [
        1.0,
        0.9999691843986511,
        0.9999778270721436,
        1.0
      ],
      "min": [
        -0.9998365640640259,
        -0.9999709725379944,
        -0.9999826550483704,
        -1.0
      ],
      "type": "VEC4"
    },
    {
      "bufferView": 1,
      "componentType": 5126,
      "count": 29794,
      "max": [
        0.9931804537773132,
        0.9924716949462891
      ],
      "min": [
        0.005282998085021973,
        0.007634460926055908
      ],
      "type": "VEC2"
    },
    {
      "bufferView": 1,
      "byteOffset": 238352,
      "componentType": 5126,
      "count": 29794,
      "max": [
        0.9931804537773132,
        0.9924716949462891
      ],
      "min": [
        0.005282998085021973,
        0.007634460926055908
      ],
      "type": "VEC2"
    },
    {
      "bufferView": 1,
      "byteOffset": 476704,
      "componentType": 5126,
      "count": 29794,
      "max": [
        0.9931804537773132,
        0.9924716949462891
      ],
      "min": [
        0.005282998085021973,
        0.007634460926055908
      ],
      "type": "VEC2"
    },
    {
      "bufferView": 1,
      "byteOffset": 715056,
      "componentType": 5126,
      "count": 29794,
      "max": [
        0.9931804537773132,
        0.9924716949462891
      ],
      "min": [
        0.005282998085021973,
        0.007634460926055908
      ],
      "type": "VEC2"
    },
    {
      "bufferView": 1,
      "byteOffset": 953408,
      "componentType": 5126,
      "count": 29794,
      "max": [
        0.9931804537773132,
        0.9924716949462891
      ],
      "min": [
        0.005282998085021973,
        0.007634460926055908
      ],
      "type": "VEC2"
    },
    {
      "bufferView": 0,
      "componentType": 5125,
      "count": 158541,
      "type": "SCALAR"
    }
  ],
  "asset": {
    "extras": {
      "author": "Al-Deezel (https://sketchfab.com/Al-dezel)",
      "license": "CC-BY-4.0 (http://creativecommons.org/licenses/by/4.0/)",
      "source": "https://sketchfab.com/3d-models/high-detailed-dog-c7f4ef5856834bf7849dfdac0b329659",
      "title": "high detailed dog"
    },
    "generator": "Sketchfab-15.19.0",
    "version": "2.0"
  },
  "bufferViews": [
    {
      "buffer": 0,
      "byteLength": 634164,
      "name": "floatBufferViews",
      "target": 34963
    },
    {
      "buffer": 0,
      "byteLength": 1191760,
      "byteOffset": 634164,
      "byteStride": 8,
      "name": "floatBufferViews",
      "target": 34962
    },
    {
      "buffer": 0,
      "byteLength": 715056,
      "byteOffset": 1825924,
      "byteStride": 12,
      "name": "floatBufferViews",
      "target": 34962
    },
    {
      "buffer": 0,
      "byteLength": 476704,
      "byteOffset": 2540980,
      "byteStride": 16,
      "name": "floatBufferViews",
      "target": 34962
    }
  ],
  "buffers": [
    {
      "byteLength": 3017684,
      "uri": "scene.bin"
    }
  ],
  "extensionsRequired": [
    "KHR_materials_pbrSpecularGlossiness"
  ],
  "extensionsUsed": [
    "KHR_materials_pbrSpecularGlossiness"
  ],
  "images": [
    {
      "uri": "textures/material_0_diffuse.png"
    },
    {
      "uri": "textures/material_0_specularGlossiness.png"
    },
    {
      "uri": "textures/material_0_normal.png"
    },
    {
      "uri": "textures/material_0_occlusion.png"
    }
  ],
  "materials": [
    {
      "doubleSided": true,
      "extensions": {
        "KHR_materials_pbrSpecularGlossiness": {
          "diffuseFactor": [
            1.0,
            1.0,
            1.0,
            1.0
          ],
          "diffuseTexture": {
            "index": 0
          },
          "glossinessFactor": 1.0,
          "specularFactor": [
            1.0,
            1.0,
            1.0
          ],
          "specularGlossinessTexture": {
            "index": 1
          }
        }
      },
      "name": "material_0",
      "normalTexture": {
        "index": 2
      },
      "occlusionTexture": {
        "index": 3
      }
    }
  ],
  "meshes": [
    {
      "name": "Object_0",
      "primitives": [
        {
          "attributes": {
            "NORMAL": 1,
            "POSITION": 0,
            "TANGENT": 2,
            "TEXCOORD_0": 3,
            "TEXCOORD_1": 4,
            "TEXCOORD_2": 5,
            "TEXCOORD_3": 6,
            "TEXCOORD_4": 7
          },
          "indices": 8,
          "material": 0,
          "mode": 4
        }
      ]
    }
  ],
  "nodes": [
    {
      "children": [
        1
      ],
      "matrix": [
        1.0,
        0.0,
        0.0,
        0.0,
        0.0,
        2.220446049250313e-16,
        -1.0,
        0.0,
        0.0,
        1.0,
        2.220446049250313e-16,
        0.0,
        0.0,
        0.0,
        0.0,
        1.0
      ],
      "name": "Sketchfab_model"
    },
    {
      "children": [
        2
      ],
      "name": "root"
    },
    {
      "children": [
        3
      ],
      "matrix": [
        1.0,
        0.0,
        0.0,
        0.0,
        0.0,
        2.220446049250313e-16,
        1.0,
        0.0,
        0.0,
        -1.0,
        2.220446049250313e-16,
        0.0,
        0.0,
        0.0,
        0.0,
        1.0
      ],
      "name": "GLTF_SceneRootNode"
    },
    {
      "children": [
        4
      ],
      "matrix": [
        0.009999999776482582,
        0.0,
        0.0,
        0.0,
        0.0,
        0.009999999776482582,
        0.0,
        0.0,
        0.0,
        0.0,
        0.009999999776482582,
        0.0,
        0.0,
        0.0,
        0.0,
        1.0
      ],
      "name": "RootNode.0_0"
    },
    {
      "children": [
        5
      ],
      "name": "dog.1_1"
    },
    {
      "mesh": 0,
      "name": "Object_5"
    }
  ],
  "samplers": [
    {
      "magFilter": 9729,
      "minFilter": 9987,
      "wrapS": 10497,
      "wrapT": 10497
    }
  ],
  "scene": 0,
  "scenes": [
    {
      "name": "Sketchfab_Scene",
      "nodes": [
        0
      ]
    }
  ],
  "textures": [
    {
      "sampler": 0,
      "source": 0
    },
    {
      "sampler": 0,
      "source": 1
    },
    {
      "sampler": 0,
      "source": 2
    },
    {
      "sampler": 0,
      "source": 3
    }
  ]
}
